<svg xmlns="http://www.w3.org/2000/svg" viewBox="0 0 1440 320">
  <path fill="#f3f4f5" fill-opacity="1" d="M0,192L24,176C48,160,96,128,144,138.7C192,149,240,203,288,208C336,213,384,171,432,176C480,181,528,235,576,261.3C624,288,672,288,720,266.7C768,245,816,203,864,197.3C912,192,960,224,1008,229.3C1056,235,1104,213,1152,224C1200,235,1248,277,1296,288C1344,299,1392,277,1416,266.7L1440,256L1440,320L1416,320C1392,320,1344,320,1296,320C1248,320,1200,320,1152,320C1104,320,1056,320,1008,320C960,320,912,320,864,320C816,320,768,320,720,320C672,320,624,320,576,320C528,320,480,320,432,320C384,320,336,320,288,320C240,320,192,320,144,320C96,320,48,320,24,320L0,320Z"></path>
</svg>